<svg width="1190.499951171875px" height="122.63999023437499px" xmlns="http://www.w3.org/2000/svg" viewBox="-345.2499755859375 13.680004882812504 1190.499951171875 122.63999023437499" style="background:#596886" preserveAspectRatio="xMidYMid"><defs><filter id="editing-hover" x="-100%" y="-100%" width="300%" height="300%"><feFlood flood-color="#052b4a" result="flood"></feFlood><feComposite operator="in" in2="SourceAlpha" in="flood" result="shadow"></feComposite><feOffset dx="-4" dy="-4" in="SourceGraphic" result="offset-1"></feOffset><feOffset dx="4" dy="4" in="shadow" result="offset-2"></feOffset><feMerge><feMergeNode in="offset-2"></feMergeNode><feMergeNode in="offset-1"></feMergeNode></feMerge></filter></defs><g filter="url(#editing-hover)"><g transform="translate(-180.9685378074646, 99)"><path d="M6.21-31.17L6.21-31.17L6.21-31.17Q4.03-32.83 4.03-36.38L4.03-36.38L4.03-36.38Q4.03-39.94 6.37-41.79L6.37-41.79L6.37-41.79Q8.70-43.65 12.74-43.65L12.74-43.65L12.74-43.65Q15.30-43.65 21.38-42.75L21.38-42.75L25.73-42.11L25.73-42.11Q27.90-41.86 30.18-41.86L30.18-41.86L30.18-41.86Q32.45-41.86 33.98-42.82L33.98-42.82L33.98-42.82Q36.29-40.77 36.29-37.82L36.29-37.82L36.29-37.82Q36.29-34.88 33.66-32.77L33.66-32.77L33.66-32.77Q30.98-30.53 27.52-30.53L27.52-30.53L27.52-30.53Q25.86-30.53 23.17-30.98L23.17-30.98L23.17-30.98Q20.03-21.12 20.03-14.27L20.03-14.27L20.03-14.27Q20.03-7.42 23.49-3.84L23.49-3.84L23.49-3.84Q21.89-0.96 19.52 0.16L19.52 0.16L19.52 0.16Q17.15 1.28 13.60 1.28L13.60 1.28L13.60 1.28Q10.05 1.28 7.84-0.67L7.84-0.67L7.84-0.67Q5.63-2.62 5.63-6.66L5.63-6.66L5.63-6.66Q5.63-11.33 8.19-19.01L8.19-19.01L8.19-19.01Q10.75-26.62 14.59-32.45L14.59-32.45L14.59-32.45Q12.74-32.64 10.82-32.64L10.82-32.64L10.82-32.64Q6.85-32.64 6.21-31.17ZM57.22-10.82L57.22-10.82L57.22-10.82Q58.82-9.73 58.82-7.33L58.82-7.33L58.82-7.33Q58.82-4.93 57.60-3.39L57.60-3.39L57.60-3.39Q56.38-1.86 54.40-0.83L54.40-0.83L54.40-0.83Q50.30 1.28 45.89 1.28L45.89 1.28L45.89 1.28Q41.47 1.28 38.88 0.32L38.88 0.32L38.88 0.32Q36.29-0.64 34.56-2.43L34.56-2.43L34.56-2.43Q31.17-5.82 31.17-12.03L31.17-12.03L31.17-12.03Q31.17-21.70 36.42-27.58L36.42-27.58L36.42-27.58Q42.05-33.92 51.84-33.92L51.84-33.92L51.84-33.92Q57.92-33.92 60.93-31.36L60.93-31.36L60.93-31.36Q63.17-29.44 63.17-26.30L63.17-26.30L63.17-26.30Q63.17-15.04 43.71-15.04L43.71-15.04L43.71-15.04Q43.46-13.38 43.46-11.97L43.46-11.97L43.46-11.97Q43.46-9.02 44.77-7.90L44.77-7.90L44.77-7.90Q46.08-6.78 48.51-6.78L48.51-6.78L48.51-6.78Q50.94-6.78 53.54-7.90L53.54-7.90L53.54-7.90Q56.13-9.02 57.22-10.82ZM44.16-17.79L44.16-17.79L44.16-17.79Q48.70-17.79 51.33-20.61L51.33-20.61L51.33-20.61Q53.95-23.30 53.95-27.58L53.95-27.58L53.95-27.58Q53.95-29.06 53.41-29.86L53.41-29.86L53.41-29.86Q52.86-30.66 51.78-30.66L51.78-30.66L51.78-30.66Q50.69-30.66 49.76-30.24L49.76-30.24L49.76-30.24Q48.83-29.82 47.87-28.42L47.87-28.42L47.87-28.42Q45.50-25.22 44.16-17.79ZM84.48-22.46L84.48-22.46L84.48-22.46Q85.38-24.83 85.38-26.88L85.38-26.88L85.38-26.88Q85.38-30.66 82.30-30.66L82.30-30.66L82.30-30.66Q80.70-30.66 79.39-29.22L79.39-29.22L79.39-29.22Q78.08-27.78 78.08-25.98L78.08-25.98L78.08-25.98Q78.08-24.70 79.10-23.68L79.10-23.68L79.10-23.68Q80.58-22.27 84.35-19.97L84.35-19.97L84.35-19.97Q88.13-17.66 89.57-15.78L89.57-15.78L89.57-15.78Q91.01-13.89 91.01-11.30L91.01-11.30L91.01-11.30Q91.01-8.70 89.76-6.34L89.76-6.34L89.76-6.34Q88.51-3.97 86.27-2.30L86.27-2.30L86.27-2.30Q81.47 1.28 73.79 1.28L73.79 1.28L73.79 1.28Q69.63 1.28 66.43-0.90L66.43-0.90L66.43-0.90Q63.23-3.01 63.23-5.50L63.23-5.50L63.23-5.50Q63.23-8 65.06-9.47L65.06-9.47L65.06-9.47Q66.88-10.94 69.57-10.94L69.57-10.94L69.57-10.94Q72.26-10.94 73.92-9.92L73.92-9.92L73.92-9.92Q73.09-7.81 73.09-6.40L73.09-6.40L73.09-6.40Q73.09-2.18 76.67-2.18L76.67-2.18L76.67-2.18Q78.21-2.18 79.23-3.14L79.23-3.14L79.23-3.14Q80.26-4.10 80.26-5.76L80.26-5.76L80.26-5.76Q80.26-9.02 74.75-12.48L74.75-12.48L74.75-12.48Q70.27-15.42 69.25-16.58L69.25-16.58L69.25-16.58Q67.52-18.62 67.52-21.18L67.52-21.18L67.52-21.18Q67.52-23.74 68.74-26.18L68.74-26.18L68.74-26.18Q69.95-28.61 72.19-30.34L72.19-30.34L72.19-30.34Q76.86-33.92 84.99-33.92L84.99-33.92L84.99-33.92Q89.15-33.92 91.62-32.26L91.62-32.26L91.62-32.26Q94.08-30.59 94.08-27.78L94.08-27.78L94.08-27.78Q94.08-24.96 92.38-23.36L92.38-23.36L92.38-23.36Q90.69-21.76 87.62-21.76L87.62-21.76L87.62-21.76Q85.50-21.76 84.48-22.46ZM97.47-6.40L97.47-6.40L97.47-6.40Q97.47-8.13 98.37-12.48L98.37-12.48L101.76-29.76L97.98-29.76L98.24-31.68L98.24-31.68Q105.92-33.98 113.34-39.62L113.34-39.62L116.42-39.62L114.88-32.64L119.87-32.64L119.30-29.76L114.37-29.76L111.10-12.48L111.10-12.48Q110.27-8.51 110.27-7.17L110.27-7.17L110.27-7.17Q110.27-4.10 112.96-3.46L112.96-3.46L112.96-3.46Q112.32-1.28 110.02 0L110.02 0L110.02 0Q107.71 1.28 104.45 1.28L104.45 1.28L104.45 1.28Q101.18 1.28 99.33-0.77L99.33-0.77L99.33-0.77Q97.47-2.82 97.47-6.40ZM157.70-29.57L157.70-29.57L157.70-29.57Q158.66-31.49 158.66-33.28L158.66-33.28L158.66-33.28Q158.66-35.07 158.46-36.06L158.46-36.06L158.46-36.06Q158.27-37.06 157.82-37.82L157.82-37.82L157.82-37.82Q156.86-39.49 154.94-39.49L154.94-39.49L154.94-39.49Q152.58-39.49 150.66-37.76L150.66-37.76L150.66-37.76Q148.61-35.97 148.61-33.15L148.61-33.15L148.61-33.15Q148.61-31.36 149.86-29.98L149.86-29.98L149.86-29.98Q151.10-28.61 153.02-27.33L153.02-27.33L153.02-27.33Q154.94-26.05 157.12-24.77L157.12-24.77L157.12-24.77Q159.30-23.49 161.22-21.95L161.22-21.95L161.22-21.95Q165.63-18.43 165.63-13.70L165.63-13.70L165.63-13.70Q165.63-10.50 163.94-7.78L163.94-7.78L163.94-7.78Q162.24-5.06 159.42-3.07L159.42-3.07L159.42-3.07Q153.28 1.28 145.15 1.28L145.15 1.28L145.15 1.28Q138.56 1.28 135.17-0.86L135.17-0.86L135.17-0.86Q131.78-3.01 131.78-6.27L131.78-6.27L131.78-6.27Q131.78-12.10 136.32-13.57L136.32-13.57L136.32-13.57Q137.60-14.02 139.55-14.02L139.55-14.02L139.55-14.02Q141.50-14.02 143.74-13.18L143.74-13.18L143.74-13.18Q142.72-10.56 142.72-8.19L142.72-8.19L142.72-8.19Q142.72-3.07 146.37-3.07L146.37-3.07L146.37-3.07Q148.74-3.07 150.69-4.80L150.69-4.80L150.69-4.80Q152.64-6.53 152.64-8.48L152.64-8.48L152.64-8.48Q152.64-10.43 151.39-11.84L151.39-11.84L151.39-11.84Q150.14-13.25 148.29-14.37L148.29-14.37L148.29-14.37Q146.43-15.49 144.29-16.58L144.29-16.58L144.29-16.58Q142.14-17.66 140.29-19.20L140.29-19.20L140.29-19.20Q135.94-22.72 135.94-28.35L135.94-28.35L135.94-28.35Q135.94-32 137.73-34.85L137.73-34.85L137.73-34.85Q139.52-37.70 142.40-39.62L142.40-39.62L142.40-39.62Q148.16-43.52 155.23-43.52L155.23-43.52L155.23-43.52Q162.30-43.52 165.73-41.41L165.73-41.41L165.73-41.41Q169.15-39.30 169.15-35.71L169.15-35.71L169.15-35.71Q169.15-32.58 166.72-30.59L166.72-30.59L166.72-30.59Q164.61-28.93 162.05-28.93L162.05-28.93L162.05-28.93Q159.49-28.93 157.70-29.57ZM185.86-3.52L185.86-3.52L185.86-3.52Q183.87 1.28 177.54 1.28L177.54 1.28L177.54 1.28Q174.27 1.28 172.22-0.96L172.22-0.96L172.22-0.96Q170.50-2.94 170.50-4.93L170.50-4.93L170.50-4.93Q170.50-10.11 172.86-20.22L172.86-20.22L175.23-32.64L188.22-33.92L184.32-13.70L184.32-13.70Q183.23-8.96 183.23-7.30L183.23-7.30L183.23-7.30Q183.23-3.65 185.86-3.52ZM176.38-41.54L176.38-41.54L176.38-41.54Q176.38-44.03 178.46-45.38L178.46-45.38L178.46-45.38Q180.54-46.72 183.55-46.72L183.55-46.72L183.55-46.72Q186.56-46.72 188.38-45.38L188.38-45.38L188.38-45.38Q190.21-44.03 190.21-41.54L190.21-41.54L190.21-41.54Q190.21-39.04 188.19-37.76L188.19-37.76L188.19-37.76Q186.18-36.48 183.17-36.48L183.17-36.48L183.17-36.48Q180.16-36.48 178.27-37.76L178.27-37.76L178.27-37.76Q176.38-39.04 176.38-41.54ZM192.32-6.40L192.32-6.40L192.32-6.40Q192.32-8.13 193.22-12.48L193.22-12.48L196.61-29.76L192.83-29.76L193.09-31.68L193.09-31.68Q200.77-33.98 208.19-39.62L208.19-39.62L211.26-39.62L209.73-32.64L214.72-32.64L214.14-29.76L209.22-29.76L205.95-12.48L205.95-12.48Q205.12-8.51 205.12-7.17L205.12-7.17L205.12-7.17Q205.12-4.10 207.81-3.46L207.81-3.46L207.81-3.46Q207.17-1.28 204.86 0L204.86 0L204.86 0Q202.56 1.28 199.30 1.28L199.30 1.28L199.30 1.28Q196.03 1.28 194.18-0.77L194.18-0.77L194.18-0.77Q192.32-2.82 192.32-6.40ZM240.06-10.82L240.06-10.82L240.06-10.82Q241.66-9.73 241.66-7.33L241.66-7.33L241.66-7.33Q241.66-4.93 240.45-3.39L240.45-3.39L240.45-3.39Q239.23-1.86 237.25-0.83L237.25-0.83L237.25-0.83Q233.15 1.28 228.74 1.28L228.74 1.28L228.74 1.28Q224.32 1.28 221.73 0.32L221.73 0.32L221.73 0.32Q219.14-0.64 217.41-2.43L217.41-2.43L217.41-2.43Q214.02-5.82 214.02-12.03L214.02-12.03L214.02-12.03Q214.02-21.70 219.26-27.58L219.26-27.58L219.26-27.58Q224.90-33.92 234.69-33.92L234.69-33.92L234.69-33.92Q240.77-33.92 243.78-31.36L243.78-31.36L243.78-31.36Q246.02-29.44 246.02-26.30L246.02-26.30L246.02-26.30Q246.02-15.04 226.56-15.04L226.56-15.04L226.56-15.04Q226.30-13.38 226.30-11.97L226.30-11.97L226.30-11.97Q226.30-9.02 227.62-7.90L227.62-7.90L227.62-7.90Q228.93-6.78 231.36-6.78L231.36-6.78L231.36-6.78Q233.79-6.78 236.38-7.90L236.38-7.90L236.38-7.90Q238.98-9.02 240.06-10.82ZM227.01-17.79L227.01-17.79L227.01-17.79Q231.55-17.79 234.18-20.61L234.18-20.61L234.18-20.61Q236.80-23.30 236.80-27.58L236.80-27.58L236.80-27.58Q236.80-29.06 236.26-29.86L236.26-29.86L236.26-29.86Q235.71-30.66 234.62-30.66L234.62-30.66L234.62-30.66Q233.54-30.66 232.61-30.24L232.61-30.24L232.61-30.24Q231.68-29.82 230.72-28.42L230.72-28.42L230.72-28.42Q228.35-25.22 227.01-17.79ZM294.78-13.25L294.78-13.25L294.78-13.25Q296.45-12.03 296.45-9.44L296.45-9.44L296.45-9.44Q296.45-6.85 295.33-5.02L295.33-5.02L295.33-5.02Q294.21-3.20 292.03-1.79L292.03-1.79L292.03-1.79Q287.36 1.22 279.20 1.22L279.20 1.22L279.20 1.22Q271.04 1.22 266.59-3.04L266.59-3.04L266.59-3.04Q262.14-7.30 262.14-14.85L262.14-14.85L262.14-14.85Q262.14-25.54 267.71-33.66L267.71-33.66L267.71-33.66Q271.94-39.68 279.49-42.24L279.49-42.24L279.49-42.24Q283.39-43.52 287.23-43.52L287.23-43.52L287.23-43.52Q291.07-43.52 293.44-43.01L293.44-43.01L293.44-43.01Q295.81-42.50 297.60-41.47L297.60-41.47L297.60-41.47Q301.50-39.23 301.50-35.65L301.50-35.65L301.50-35.65Q301.50-32.38 298.43-29.95L298.43-29.95L298.43-29.95Q295.62-27.78 293.31-27.78L293.31-27.78L293.31-27.78Q291.01-27.78 290.05-28.10L290.05-28.10L290.05-28.10Q290.30-30.40 290.30-31.90L290.30-31.90L290.30-31.90Q290.30-33.41 290.24-34.50L290.24-34.50L290.24-34.50Q290.18-35.58 289.86-36.61L289.86-36.61L289.86-36.61Q289.22-38.98 287.26-38.98L287.26-38.98L287.26-38.98Q285.31-38.98 283.36-37.15L283.36-37.15L283.36-37.15Q281.41-35.33 279.74-32.26L279.74-32.26L279.74-32.26Q275.97-25.28 275.97-17.02L275.97-17.02L275.97-17.02Q275.97-13.06 278.21-10.78L278.21-10.78L278.21-10.78Q280.45-8.51 285.25-8.51L285.25-8.51L285.25-8.51Q288.83-8.51 292.22-10.88L292.22-10.88L292.22-10.88Q293.70-11.90 294.78-13.25ZM315.71 1.28L315.71 1.28L315.71 1.28Q301.63 1.28 301.63-11.97L301.63-11.97L301.63-11.97Q301.63-21.38 306.82-27.46L306.82-27.46L306.82-27.46Q312.32-33.92 321.86-33.92L321.86-33.92L321.86-33.92Q328.77-33.92 332.29-30.72L332.29-30.72L332.29-30.72Q335.81-27.52 335.81-20.80L335.81-20.80L335.81-20.80Q335.81-10.56 330.30-4.61L330.30-4.61L330.30-4.61Q324.93 1.28 315.71 1.28ZM317.38-26.56L317.38-26.56L317.38-26.56Q316.61-24.83 316-22.24L316-22.24L316-22.24Q315.39-19.65 314.62-15.55L314.62-15.55L314.62-15.55Q313.86-11.46 313.86-6.40L313.86-6.40L313.86-6.40Q313.86-4.74 314.40-3.65L314.40-3.65L314.40-3.65Q314.94-2.56 316.42-2.56L316.42-2.56L316.42-2.56Q317.89-2.56 318.82-3.26L318.82-3.26L318.82-3.26Q319.74-3.97 320.45-5.63L320.45-5.63L320.45-5.63Q321.73-8.58 322.75-14.05L322.75-14.05L322.75-14.05Q323.78-19.52 323.87-21.89L323.87-21.89L323.87-21.89Q323.97-24.26 323.97-26.02L323.97-26.02L323.97-26.02Q323.97-27.78 323.46-28.93L323.46-28.93L323.46-28.93Q322.94-30.08 321.50-30.08L321.50-30.08L321.50-30.08Q320.06-30.08 319.10-29.18L319.10-29.18L319.10-29.18Q318.14-28.29 317.38-26.56ZM359.74-33.92L359.74-33.92L359.74-33.92Q362.05-33.92 363.84-33.41L363.84-33.41L363.84-33.41Q363.90-33.66 364.03-34.37L364.03-34.37L364.35-36.35L364.35-36.35Q364.61-37.63 364.99-39.74L364.99-39.74L366.02-44.80L378.75-46.08L371.65-8.96L371.65-8.96Q371.58-8.58 371.58-7.94L371.58-7.94L371.58-6.91L371.58-6.91Q371.58-5.50 372.29-4.45L372.29-4.45L372.29-4.45Q372.99-3.39 374.14-3.39L374.14-3.39L374.14-3.39Q372.86-0.38 368.96 0.90L368.96 0.90L368.96 0.90Q367.62 1.28 365.73 1.28L365.73 1.28L365.73 1.28Q363.84 1.28 362.11 0.29L362.11 0.29L362.11 0.29Q360.38-0.70 359.87-2.37L359.87-2.37L359.87-2.37Q358.85-0.70 356.80 0.29L356.80 0.29L356.80 0.29Q354.75 1.28 351.78 1.28L351.78 1.28L351.78 1.28Q348.80 1.28 346.34 0.51L346.34 0.51L346.34 0.51Q343.87-0.26 342.34-1.92L342.34-1.92L342.34-1.92Q339.52-5.18 339.52-12.61L339.52-12.61L339.52-12.61Q339.52-22.21 345.15-28.03L345.15-28.03L345.15-28.03Q350.78-33.92 359.74-33.92ZM359.30-30.08L359.30-30.08L359.30-30.08Q356.93-30.08 355.65-27.52L355.65-27.52L355.65-27.52Q354.37-24.96 353.06-18.62L353.06-18.62L353.06-18.62Q351.74-12.29 351.74-6.59L351.74-6.59L351.74-6.59Q351.74-2.69 354.05-2.69L354.05-2.69L354.05-2.69Q356.10-2.69 357.54-4.74L357.54-4.74L357.54-4.74Q358.98-6.78 359.55-10.18L359.55-10.18L363.01-28.93L363.01-28.93Q361.66-30.08 359.30-30.08ZM405.50-10.82L405.50-10.82L405.50-10.82Q407.10-9.73 407.10-7.33L407.10-7.33L407.10-7.33Q407.10-4.93 405.89-3.39L405.89-3.39L405.89-3.39Q404.67-1.86 402.69-0.83L402.69-0.83L402.69-0.83Q398.59 1.28 394.18 1.28L394.18 1.28L394.18 1.28Q389.76 1.28 387.17 0.32L387.17 0.32L387.17 0.32Q384.58-0.64 382.85-2.43L382.85-2.43L382.85-2.43Q379.46-5.82 379.46-12.03L379.46-12.03L379.46-12.03Q379.46-21.70 384.70-27.58L384.70-27.58L384.70-27.58Q390.34-33.92 400.13-33.92L400.13-33.92L400.13-33.92Q406.21-33.92 409.22-31.36L409.22-31.36L409.22-31.36Q411.46-29.44 411.46-26.30L411.46-26.30L411.46-26.30Q411.46-15.04 392.00-15.04L392.00-15.04L392.00-15.04Q391.74-13.38 391.74-11.97L391.74-11.97L391.74-11.97Q391.74-9.02 393.06-7.90L393.06-7.90L393.06-7.90Q394.37-6.78 396.80-6.78L396.80-6.78L396.80-6.78Q399.23-6.78 401.82-7.90L401.82-7.90L401.82-7.90Q404.42-9.02 405.50-10.82ZM392.45-17.79L392.45-17.79L392.45-17.79Q396.99-17.79 399.62-20.61L399.62-20.61L399.62-20.61Q402.24-23.30 402.24-27.58L402.24-27.58L402.24-27.58Q402.24-29.06 401.70-29.86L401.70-29.86L401.70-29.86Q401.15-30.66 400.06-30.66L400.06-30.66L400.06-30.66Q398.98-30.66 398.05-30.24L398.05-30.24L398.05-30.24Q397.12-29.82 396.16-28.42L396.16-28.42L396.16-28.42Q393.79-25.22 392.45-17.79ZM440.70 1.28L440.70 1.28L440.70 1.28Q432.96 1.28 432.96-4.74L432.96-4.74L432.96-4.74Q433.02-6.40 433.54-9.22L433.54-9.22L434.69-15.10L434.69-15.10Q436.42-23.42 436.42-25.28L436.42-25.28L436.42-25.28Q436.42-28.99 434.24-28.99L434.24-28.99L434.24-28.99Q430.59-28.99 428.67-19.46L428.67-19.46L424.90 0L412.03 1.28L418.69-32.70L429.18-33.92L428.16-27.65L428.16-27.65Q431.17-33.92 440.38-33.92L440.38-33.92L440.38-33.92Q444.86-33.92 446.75-32.03L446.75-32.03L446.75-32.03Q448.64-30.14 448.64-25.92L448.64-25.92L448.64-25.92Q448.64-21.95 446.59-12.67L446.59-12.67L446.59-12.67Q445.63-8.51 445.63-6.94L445.63-6.94L445.63-6.94Q445.63-5.38 446.50-4.48L446.50-4.48L446.50-4.48Q447.36-3.58 448.64-3.46L448.64-3.46L448.64-3.46Q448.00-1.28 445.79 0L445.79 0L445.79 0Q443.58 1.28 440.70 1.28ZM456.54-1.92L456.54-1.92L456.54-1.92Q455.04-3.58 454.37-6.21L454.37-6.21L454.37-6.21Q453.70-8.83 453.70-13.12L453.70-13.12L453.70-13.12Q453.70-17.41 455.17-21.31L455.17-21.31L455.17-21.31Q456.64-25.22 459.33-28.03L459.33-28.03L459.33-28.03Q464.83-33.92 473.92-33.92L473.92-33.92L473.92-33.92Q477.18-33.92 479.55-32.83L479.55-32.83L490.50-33.92L485.76-8.96L485.76-8.96Q485.57-8.19 485.57-6.78L485.57-6.78L485.57-6.78Q485.57-5.38 486.43-4.48L486.43-4.48L486.43-4.48Q487.30-3.58 488.58-3.46L488.58-3.46L488.58-3.46Q487.94-1.28 485.60 0L485.60 0L485.60 0Q483.26 1.28 480.64 1.28L480.64 1.28L480.64 1.28Q478.02 1.28 476.26 0.29L476.26 0.29L476.26 0.29Q474.50-0.70 473.98-2.37L473.98-2.37L473.98-2.37Q472.96-0.77 470.78 0.26L470.78 0.26L470.78 0.26Q468.61 1.28 465.70 1.28L465.70 1.28L465.70 1.28Q462.78 1.28 460.42 0.51L460.42 0.51L460.42 0.51Q458.05-0.26 456.54-1.92ZM470.05-27.90L470.05-27.90L470.05-27.90Q469.31-26.75 468.67-24.80L468.67-24.80L468.67-24.80Q468.03-22.85 466.98-17.63L466.98-17.63L466.98-17.63Q465.92-12.42 465.92-8.70L465.92-8.70L465.92-8.70Q465.92-4.99 466.50-3.90L466.50-3.90L466.50-3.90Q467.07-2.82 468.10-2.82L468.10-2.82L468.10-2.82Q470.14-2.82 471.65-4.77L471.65-4.77L471.65-4.77Q473.15-6.72 473.73-10.18L473.73-10.18L477.12-28.93L477.12-28.93Q475.78-30.08 474.21-30.08L474.21-30.08L474.21-30.08Q472.64-30.08 471.71-29.57L471.71-29.57L471.71-29.57Q470.78-29.06 470.05-27.90ZM540.03 1.28L540.03 1.28L540.03 1.28Q532.29 1.28 532.29-4.74L532.29-4.74L532.29-4.74Q532.29-7.36 533.41-12.45L533.41-12.45L533.41-12.45Q534.53-17.54 534.91-19.58L534.91-19.58L534.91-19.58Q535.81-24.26 535.81-25.73L535.81-25.73L535.81-25.73Q535.81-28.99 533.38-28.99L533.38-28.99L533.38-28.99Q531.78-28.99 530.24-26.78L530.24-26.78L530.24-26.78Q528.70-24.58 528-20.16L528-20.16L524.03 0L511.55 1.28L515.01-16.13L515.01-16.13Q515.58-19.01 516.10-22.27L516.10-22.27L516.10-22.27Q516.61-25.54 516.61-26.05L516.61-26.05L516.61-26.05Q516.61-28.99 514.43-28.99L514.43-28.99L514.43-28.99Q512.96-28.99 511.36-26.82L511.36-26.82L511.36-26.82Q509.76-24.64 508.86-20.16L508.86-20.16L504.96 0L492.35 1.28L499.07-32.64L509.50-33.92L508.42-27.46L508.42-27.46Q510.08-30.91 513.15-32.42L513.15-32.42L513.15-32.42Q516.22-33.92 521.02-33.92L521.02-33.92L521.02-33.92Q523.78-33.92 525.57-32.58L525.57-32.58L525.57-32.58Q527.36-31.23 527.94-29.06L527.94-29.06L527.94-29.06Q529.02-31.30 531.81-32.61L531.81-32.61L531.81-32.61Q534.59-33.92 538.02-33.92L538.02-33.92L538.02-33.92Q541.44-33.92 543.14-33.18L543.14-33.18L543.14-33.18Q544.83-32.45 545.86-31.23L545.86-31.23L545.86-31.23Q547.58-28.99 547.58-24.90L547.58-24.90L547.58-24.90Q547.58-20.86 545.86-12.48L545.86-12.48L545.86-12.48Q544.96-8.38 544.96-6.88L544.96-6.88L544.96-6.88Q544.96-5.38 545.82-4.48L545.82-4.48L545.82-4.48Q546.69-3.58 547.97-3.46L547.97-3.46L547.97-3.46Q547.33-1.28 545.12 0L545.12 0L545.12 0Q542.91 1.28 540.03 1.28ZM578.82-10.82L578.82-10.82L578.82-10.82Q580.42-9.73 580.42-7.33L580.42-7.33L580.42-7.33Q580.42-4.93 579.20-3.39L579.20-3.39L579.20-3.39Q577.98-1.86 576-0.83L576-0.83L576-0.83Q571.90 1.28 567.49 1.28L567.49 1.28L567.49 1.28Q563.07 1.28 560.48 0.32L560.48 0.32L560.48 0.32Q557.89-0.64 556.16-2.43L556.16-2.43L556.16-2.43Q552.77-5.82 552.77-12.03L552.77-12.03L552.77-12.03Q552.77-21.70 558.02-27.58L558.02-27.58L558.02-27.58Q563.65-33.92 573.44-33.92L573.44-33.92L573.44-33.92Q579.52-33.92 582.53-31.36L582.53-31.36L582.53-31.36Q584.77-29.44 584.77-26.30L584.77-26.30L584.77-26.30Q584.77-15.04 565.31-15.04L565.31-15.04L565.31-15.04Q565.06-13.38 565.06-11.97L565.06-11.97L565.06-11.97Q565.06-9.02 566.37-7.90L566.37-7.90L566.37-7.90Q567.68-6.78 570.11-6.78L570.11-6.78L570.11-6.78Q572.54-6.78 575.14-7.90L575.14-7.90L575.14-7.90Q577.73-9.02 578.82-10.82ZM565.76-17.79L565.76-17.79L565.76-17.79Q570.30-17.79 572.93-20.61L572.93-20.61L572.93-20.61Q575.55-23.30 575.55-27.58L575.55-27.58L575.55-27.58Q575.55-29.06 575.01-29.86L575.01-29.86L575.01-29.86Q574.46-30.66 573.38-30.66L573.38-30.66L573.38-30.66Q572.29-30.66 571.36-30.24L571.36-30.24L571.36-30.24Q570.43-29.82 569.47-28.42L569.47-28.42L569.47-28.42Q567.10-25.22 565.76-17.79ZM610.05-29.50L603.26-29.50L603.26-29.50Q605.63-37.70 605.76-46.34L605.76-46.34L607.62-46.59L607.62-46.59Q608.58-46.72 609.28-46.72L609.28-46.72L609.28-46.72Q612.10-46.72 613.63-45.34L613.63-45.34L613.63-45.34Q615.17-43.97 615.17-41.54L615.17-41.54L615.17-41.54Q615.17-38.98 614.02-36.16L614.02-36.16L614.02-36.16Q611.97-31.17 610.05-29.50L610.05-29.50ZM623.42-29.50L616.64-29.50L616.64-29.50Q619.01-37.70 619.14-46.34L619.14-46.34L620.99-46.59L620.99-46.59Q621.95-46.72 622.66-46.72L622.66-46.72L622.66-46.72Q625.47-46.72 627.01-45.34L627.01-45.34L627.01-45.34Q628.54-43.97 628.54-41.54L628.54-41.54L628.54-41.54Q628.54-38.98 627.39-36.16L627.39-36.16L627.39-36.16Q625.34-31.17 623.42-29.50L623.42-29.50ZM653.25-29.57L653.25-29.57L653.25-29.57Q654.21-31.49 654.21-33.28L654.21-33.28L654.21-33.28Q654.21-35.07 654.02-36.06L654.02-36.06L654.02-36.06Q653.82-37.06 653.38-37.82L653.38-37.82L653.38-37.82Q652.42-39.49 650.50-39.49L650.50-39.49L650.50-39.49Q648.13-39.49 646.21-37.76L646.21-37.76L646.21-37.76Q644.16-35.97 644.16-33.15L644.16-33.15L644.16-33.15Q644.16-31.36 645.41-29.98L645.41-29.98L645.41-29.98Q646.66-28.61 648.58-27.33L648.58-27.33L648.58-27.33Q650.50-26.05 652.67-24.77L652.67-24.77L652.67-24.77Q654.85-23.49 656.77-21.95L656.77-21.95L656.77-21.95Q661.18-18.43 661.18-13.70L661.18-13.70L661.18-13.70Q661.18-10.50 659.49-7.78L659.49-7.78L659.49-7.78Q657.79-5.06 654.98-3.07L654.98-3.07L654.98-3.07Q648.83 1.28 640.70 1.28L640.70 1.28L640.70 1.28Q634.11 1.28 630.72-0.86L630.72-0.86L630.72-0.86Q627.33-3.01 627.33-6.27L627.33-6.27L627.33-6.27Q627.33-12.10 631.87-13.57L631.87-13.57L631.87-13.57Q633.15-14.02 635.10-14.02L635.10-14.02L635.10-14.02Q637.06-14.02 639.30-13.18L639.30-13.18L639.30-13.18Q638.27-10.56 638.27-8.19L638.27-8.19L638.27-8.19Q638.27-3.07 641.92-3.07L641.92-3.07L641.92-3.07Q644.29-3.07 646.24-4.80L646.24-4.80L646.24-4.80Q648.19-6.53 648.19-8.48L648.19-8.48L648.19-8.48Q648.19-10.43 646.94-11.84L646.94-11.84L646.94-11.84Q645.70-13.25 643.84-14.37L643.84-14.37L643.84-14.37Q641.98-15.49 639.84-16.58L639.84-16.58L639.84-16.58Q637.70-17.66 635.84-19.20L635.84-19.20L635.84-19.20Q631.49-22.72 631.49-28.35L631.49-28.35L631.49-28.35Q631.49-32 633.28-34.85L633.28-34.85L633.28-34.85Q635.07-37.70 637.95-39.62L637.95-39.62L637.95-39.62Q643.71-43.52 650.78-43.52L650.78-43.52L650.78-43.52Q657.86-43.52 661.28-41.41L661.28-41.41L661.28-41.41Q664.70-39.30 664.70-35.71L664.70-35.71L664.70-35.71Q664.70-32.58 662.27-30.59L662.27-30.59L662.27-30.59Q660.16-28.93 657.60-28.93L657.60-28.93L657.60-28.93Q655.04-28.93 653.25-29.57ZM667.07-6.40L667.07-6.40L667.07-6.40Q667.07-8.13 667.97-12.48L667.97-12.48L671.36-29.76L667.58-29.76L667.84-31.68L667.84-31.68Q675.52-33.98 682.94-39.62L682.94-39.62L686.02-39.62L684.48-32.64L689.47-32.64L688.90-29.76L683.97-29.76L680.70-12.48L680.70-12.48Q679.87-8.51 679.87-7.17L679.87-7.17L679.87-7.17Q679.87-4.10 682.56-3.46L682.56-3.46L682.56-3.46Q681.92-1.28 679.62 0L679.62 0L679.62 0Q677.31 1.28 674.05 1.28L674.05 1.28L674.05 1.28Q670.78 1.28 668.93-0.77L668.93-0.77L668.93-0.77Q667.07-2.82 667.07-6.40ZM704.51-3.52L704.51-3.52L704.51-3.52Q702.53 1.28 696.19 1.28L696.19 1.28L696.19 1.28Q692.93 1.28 690.88-0.96L690.88-0.96L690.88-0.96Q689.15-2.94 689.15-4.93L689.15-4.93L689.15-4.93Q689.15-10.11 691.52-20.22L691.52-20.22L693.89-32.64L706.88-33.92L702.98-13.70L702.98-13.70Q701.89-8.96 701.89-7.30L701.89-7.30L701.89-7.30Q701.89-3.65 704.51-3.52ZM695.04-41.54L695.04-41.54L695.04-41.54Q695.04-44.03 697.12-45.38L697.12-45.38L697.12-45.38Q699.20-46.72 702.21-46.72L702.21-46.72L702.21-46.72Q705.22-46.72 707.04-45.38L707.04-45.38L707.04-45.38Q708.86-44.03 708.86-41.54L708.86-41.54L708.86-41.54Q708.86-39.04 706.85-37.76L706.85-37.76L706.85-37.76Q704.83-36.48 701.82-36.48L701.82-36.48L701.82-36.48Q698.82-36.48 696.93-37.76L696.93-37.76L696.93-37.76Q695.04-39.04 695.04-41.54ZM725.25-3.52L725.25-3.52L725.25-3.52Q723.26 1.28 716.93 1.28L716.93 1.28L716.93 1.28Q713.73 1.28 711.68-0.96L711.68-0.96L711.68-0.96Q710.02-2.82 710.02-4.93L710.02-4.93L710.02-4.93Q710.02-9.73 712.26-20.22L712.26-20.22L716.93-44.80L729.92-46.08L723.71-13.70L723.71-13.70Q722.62-8.96 722.62-7.30L722.62-7.30L722.62-7.30Q722.62-3.65 725.25-3.52ZM731.71-6.40L731.71-6.40L731.71-6.40Q731.71-8.13 732.61-12.48L732.61-12.48L736.00-29.76L732.22-29.76L732.48-31.68L732.48-31.68Q740.16-33.98 747.58-39.62L747.58-39.62L750.66-39.62L749.12-32.64L754.11-32.64L753.54-29.76L748.61-29.76L745.34-12.48L745.34-12.48Q744.51-8.51 744.51-7.17L744.51-7.17L744.51-7.17Q744.51-4.10 747.20-3.46L747.20-3.46L747.20-3.46Q746.56-1.28 744.26 0L744.26 0L744.26 0Q741.95 1.28 738.69 1.28L738.69 1.28L738.69 1.28Q735.42 1.28 733.57-0.77L733.57-0.77L733.57-0.77Q731.71-2.82 731.71-6.40ZM767.49 1.28L767.49 1.28L767.49 1.28Q753.41 1.28 753.41-11.97L753.41-11.97L753.41-11.97Q753.41-21.38 758.59-27.46L758.59-27.46L758.59-27.46Q764.10-33.92 773.63-33.92L773.63-33.92L773.63-33.92Q780.54-33.92 784.06-30.72L784.06-30.72L784.06-30.72Q787.58-27.52 787.58-20.80L787.58-20.80L787.58-20.80Q787.58-10.56 782.08-4.61L782.08-4.61L782.08-4.61Q776.70 1.28 767.49 1.28ZM769.15-26.56L769.15-26.56L769.15-26.56Q768.38-24.83 767.78-22.24L767.78-22.24L767.78-22.24Q767.17-19.65 766.40-15.55L766.40-15.55L766.40-15.55Q765.63-11.46 765.63-6.40L765.63-6.40L765.63-6.40Q765.63-4.74 766.18-3.65L766.18-3.65L766.18-3.65Q766.72-2.56 768.19-2.56L768.19-2.56L768.19-2.56Q769.66-2.56 770.59-3.26L770.59-3.26L770.59-3.26Q771.52-3.97 772.22-5.63L772.22-5.63L772.22-5.63Q773.50-8.58 774.53-14.05L774.53-14.05L774.53-14.05Q775.55-19.52 775.65-21.89L775.65-21.89L775.65-21.89Q775.74-24.26 775.74-26.02L775.74-26.02L775.74-26.02Q775.74-27.78 775.23-28.93L775.23-28.93L775.23-28.93Q774.72-30.08 773.28-30.08L773.28-30.08L773.28-30.08Q771.84-30.08 770.88-29.18L770.88-29.18L770.88-29.18Q769.92-28.29 769.15-26.56ZM818.43 1.28L818.43 1.28L818.43 1.28Q810.69 1.28 810.69-4.74L810.69-4.74L810.69-4.74Q810.75-6.40 811.26-9.22L811.26-9.22L812.42-15.10L812.42-15.10Q814.14-23.42 814.14-25.28L814.14-25.28L814.14-25.28Q814.14-28.99 811.97-28.99L811.97-28.99L811.97-28.99Q808.32-28.99 806.40-19.46L806.40-19.46L802.62 0L789.76 1.28L796.42-32.70L806.91-33.92L805.89-27.65L805.89-27.65Q808.90-33.92 818.11-33.92L818.11-33.92L818.11-33.92Q822.59-33.92 824.48-32.03L824.48-32.03L824.48-32.03Q826.37-30.14 826.37-25.92L826.37-25.92L826.37-25.92Q826.37-21.95 824.32-12.67L824.32-12.67L824.32-12.67Q823.36-8.51 823.36-6.94L823.36-6.94L823.36-6.94Q823.36-5.38 824.22-4.48L824.22-4.48L824.22-4.48Q825.09-3.58 826.37-3.46L826.37-3.46L826.37-3.46Q825.73-1.28 823.52 0L823.52 0L823.52 0Q821.31 1.28 818.43 1.28ZM840.77-29.50L833.98-29.50L833.98-29.50Q836.35-37.70 836.48-46.34L836.48-46.34L838.34-46.59L838.34-46.59Q839.30-46.72 840-46.72L840-46.72L840-46.72Q842.82-46.72 844.35-45.34L844.35-45.34L844.35-45.34Q845.89-43.97 845.89-41.54L845.89-41.54L845.89-41.54Q845.89-38.98 844.74-36.16L844.74-36.16L844.74-36.16Q842.69-31.17 840.77-29.50L840.77-29.50ZM854.14-29.50L847.36-29.50L847.36-29.50Q849.73-37.70 849.86-46.34L849.86-46.34L851.71-46.59L851.71-46.59Q852.67-46.72 853.38-46.72L853.38-46.72L853.38-46.72Q856.19-46.72 857.73-45.34L857.73-45.34L857.73-45.34Q859.26-43.97 859.26-41.54L859.26-41.54L859.26-41.54Q859.26-38.98 858.11-36.16L858.11-36.16L858.11-36.16Q856.06-31.17 854.14-29.50L854.14-29.50Z" fill="#ffd5af"></path></g></g><style>text {
  font-size: 64px;
  font-family: Arial Black;
  dominant-baseline: central;
  text-anchor: middle;
}</style></svg>