<svg width="298.24000244140626px" height="122.63999023437499px" xmlns="http://www.w3.org/2000/svg" viewBox="100.87999877929687 13.680004882812504 298.24000244140626 122.63999023437499" style="background:#596886" preserveAspectRatio="xMidYMid"><defs><filter id="editing-hover" x="-100%" y="-100%" width="300%" height="300%"><feFlood flood-color="#052b4a" result="flood"></feFlood><feComposite operator="in" in2="SourceAlpha" in="flood" result="shadow"></feComposite><feOffset dx="-4" dy="-4" in="SourceGraphic" result="offset-1"></feOffset><feOffset dx="4" dy="4" in="shadow" result="offset-2"></feOffset><feMerge><feMergeNode in="offset-2"></feMergeNode><feMergeNode in="offset-1"></feMergeNode></feMerge></filter></defs><g filter="url(#editing-hover)"><g transform="translate(150.3500109910965, 99)"><path d="M26.05-29.57L26.05-29.57L26.05-29.57Q27.01-31.49 27.01-33.28L27.01-33.28L27.01-33.28Q27.01-35.07 26.82-36.06L26.82-36.06L26.82-36.06Q26.62-37.06 26.18-37.82L26.18-37.82L26.18-37.82Q25.22-39.49 23.30-39.49L23.30-39.49L23.30-39.49Q20.93-39.49 19.01-37.76L19.01-37.76L19.01-37.76Q16.96-35.97 16.96-33.15L16.96-33.15L16.96-33.15Q16.96-31.36 18.21-29.98L18.21-29.98L18.21-29.98Q19.46-28.61 21.38-27.33L21.38-27.33L21.38-27.33Q23.30-26.05 25.47-24.77L25.47-24.77L25.47-24.77Q27.65-23.49 29.57-21.95L29.57-21.95L29.57-21.95Q33.98-18.43 33.98-13.70L33.98-13.70L33.98-13.70Q33.98-10.50 32.29-7.78L32.29-7.78L32.29-7.78Q30.59-5.06 27.78-3.07L27.78-3.07L27.78-3.07Q21.63 1.28 13.50 1.28L13.50 1.28L13.50 1.28Q6.91 1.28 3.52-0.86L3.52-0.86L3.52-0.86Q0.13-3.01 0.13-6.27L0.13-6.27L0.13-6.27Q0.13-12.10 4.67-13.57L4.67-13.57L4.67-13.57Q5.95-14.02 7.90-14.02L7.90-14.02L7.90-14.02Q9.86-14.02 12.10-13.18L12.10-13.18L12.10-13.18Q11.07-10.56 11.07-8.19L11.07-8.19L11.07-8.19Q11.07-3.07 14.72-3.07L14.72-3.07L14.72-3.07Q17.09-3.07 19.04-4.80L19.04-4.80L19.04-4.80Q20.99-6.53 20.99-8.48L20.99-8.48L20.99-8.48Q20.99-10.43 19.74-11.84L19.74-11.84L19.74-11.84Q18.50-13.25 16.64-14.37L16.64-14.37L16.64-14.37Q14.78-15.49 12.64-16.58L12.64-16.58L12.64-16.58Q10.50-17.66 8.64-19.20L8.64-19.20L8.64-19.20Q4.29-22.72 4.29-28.35L4.29-28.35L4.29-28.35Q4.29-32 6.08-34.85L6.08-34.85L6.08-34.85Q7.87-37.70 10.75-39.62L10.75-39.62L10.75-39.62Q16.51-43.52 23.58-43.52L23.58-43.52L23.58-43.52Q30.66-43.52 34.08-41.41L34.08-41.41L34.08-41.41Q37.50-39.30 37.50-35.71L37.50-35.71L37.50-35.71Q37.50-32.58 35.07-30.59L35.07-30.59L35.07-30.59Q32.96-28.93 30.40-28.93L30.40-28.93L30.40-28.93Q27.84-28.93 26.05-29.57ZM39.87-6.40L39.87-6.40L39.87-6.40Q39.87-8.13 40.77-12.48L40.77-12.48L44.16-29.76L40.38-29.76L40.64-31.68L40.64-31.68Q48.32-33.98 55.74-39.62L55.74-39.62L58.82-39.62L57.28-32.64L62.27-32.64L61.70-29.76L56.77-29.76L53.50-12.48L53.50-12.48Q52.67-8.51 52.67-7.17L52.67-7.17L52.67-7.17Q52.67-4.10 55.36-3.46L55.36-3.46L55.36-3.46Q54.72-1.28 52.42 0L52.42 0L52.42 0Q50.11 1.28 46.85 1.28L46.85 1.28L46.85 1.28Q43.58 1.28 41.73-0.77L41.73-0.77L41.73-0.77Q39.87-2.82 39.87-6.40ZM77.31-3.52L77.31-3.52L77.31-3.52Q75.33 1.28 68.99 1.28L68.99 1.28L68.99 1.28Q65.73 1.28 63.68-0.96L63.68-0.96L63.68-0.96Q61.95-2.94 61.95-4.93L61.95-4.93L61.95-4.93Q61.95-10.11 64.32-20.22L64.32-20.22L66.69-32.64L79.68-33.92L75.78-13.70L75.78-13.70Q74.69-8.96 74.69-7.30L74.69-7.30L74.69-7.30Q74.69-3.65 77.31-3.52ZM67.84-41.54L67.84-41.54L67.84-41.54Q67.84-44.03 69.92-45.38L69.92-45.38L69.92-45.38Q72-46.72 75.01-46.72L75.01-46.72L75.01-46.72Q78.02-46.72 79.84-45.38L79.84-45.38L79.84-45.38Q81.66-44.03 81.66-41.54L81.66-41.54L81.66-41.54Q81.66-39.04 79.65-37.76L79.65-37.76L79.65-37.76Q77.63-36.48 74.62-36.48L74.62-36.48L74.62-36.48Q71.62-36.48 69.73-37.76L69.73-37.76L69.73-37.76Q67.84-39.04 67.84-41.54ZM98.05-3.52L98.05-3.52L98.05-3.52Q96.06 1.28 89.73 1.28L89.73 1.28L89.73 1.28Q86.53 1.28 84.48-0.96L84.48-0.96L84.48-0.96Q82.82-2.82 82.82-4.93L82.82-4.93L82.82-4.93Q82.82-9.73 85.06-20.22L85.06-20.22L89.73-44.80L102.72-46.08L96.51-13.70L96.51-13.70Q95.42-8.96 95.42-7.30L95.42-7.30L95.42-7.30Q95.42-3.65 98.05-3.52ZM104.51-6.40L104.51-6.40L104.51-6.40Q104.51-8.13 105.41-12.48L105.41-12.48L108.80-29.76L105.02-29.76L105.28-31.68L105.28-31.68Q112.96-33.98 120.38-39.62L120.38-39.62L123.46-39.62L121.92-32.64L126.91-32.64L126.34-29.76L121.41-29.76L118.14-12.48L118.14-12.48Q117.31-8.51 117.31-7.17L117.31-7.17L117.31-7.17Q117.31-4.10 120-3.46L120-3.46L120-3.46Q119.36-1.28 117.06 0L117.06 0L117.06 0Q114.75 1.28 111.49 1.28L111.49 1.28L111.49 1.28Q108.22 1.28 106.37-0.77L106.37-0.77L106.37-0.77Q104.51-2.82 104.51-6.40ZM140.29 1.28L140.29 1.28L140.29 1.28Q126.21 1.28 126.21-11.97L126.21-11.97L126.21-11.97Q126.21-21.38 131.39-27.46L131.39-27.46L131.39-27.46Q136.90-33.92 146.43-33.92L146.43-33.92L146.43-33.92Q153.34-33.92 156.86-30.72L156.86-30.72L156.86-30.72Q160.38-27.52 160.38-20.80L160.38-20.80L160.38-20.80Q160.38-10.56 154.88-4.61L154.88-4.61L154.88-4.61Q149.50 1.28 140.29 1.28ZM141.95-26.56L141.95-26.56L141.95-26.56Q141.18-24.83 140.58-22.24L140.58-22.24L140.58-22.24Q139.97-19.65 139.20-15.55L139.20-15.55L139.20-15.55Q138.43-11.46 138.43-6.40L138.43-6.40L138.43-6.40Q138.43-4.74 138.98-3.65L138.98-3.65L138.98-3.65Q139.52-2.56 140.99-2.56L140.99-2.56L140.99-2.56Q142.46-2.56 143.39-3.26L143.39-3.26L143.39-3.26Q144.32-3.97 145.02-5.63L145.02-5.63L145.02-5.63Q146.30-8.58 147.33-14.05L147.33-14.05L147.33-14.05Q148.35-19.52 148.45-21.89L148.45-21.89L148.45-21.89Q148.54-24.26 148.54-26.02L148.54-26.02L148.54-26.02Q148.54-27.78 148.03-28.93L148.03-28.93L148.03-28.93Q147.52-30.08 146.08-30.08L146.08-30.08L146.08-30.08Q144.64-30.08 143.68-29.18L143.68-29.18L143.68-29.18Q142.72-28.29 141.95-26.56ZM191.23 1.28L191.23 1.28L191.23 1.28Q183.49 1.28 183.49-4.74L183.49-4.74L183.49-4.74Q183.55-6.40 184.06-9.22L184.06-9.22L185.22-15.10L185.22-15.10Q186.94-23.42 186.94-25.28L186.94-25.28L186.94-25.28Q186.94-28.99 184.77-28.99L184.77-28.99L184.77-28.99Q181.12-28.99 179.20-19.46L179.20-19.46L175.42 0L162.56 1.28L169.22-32.70L179.71-33.92L178.69-27.65L178.69-27.65Q181.70-33.92 190.91-33.92L190.91-33.92L190.91-33.92Q195.39-33.92 197.28-32.03L197.28-32.03L197.28-32.03Q199.17-30.14 199.17-25.92L199.17-25.92L199.17-25.92Q199.17-21.95 197.12-12.67L197.12-12.67L197.12-12.67Q196.16-8.51 196.16-6.94L196.16-6.94L196.16-6.94Q196.16-5.38 197.02-4.48L197.02-4.48L197.02-4.48Q197.89-3.58 199.17-3.46L199.17-3.46L199.17-3.46Q198.53-1.28 196.32 0L196.32 0L196.32 0Q194.11 1.28 191.23 1.28Z" fill="#ffd5af"></path></g></g><style>text {
  font-size: 64px;
  font-family: Arial Black;
  dominant-baseline: central;
  text-anchor: middle;
}</style></svg>